<svg width="80" height="80" viewBox="0 0 80 80" fill="none" xmlns="http://www.w3.org/2000/svg">
<g filter="url(#filter0_d_2657_69782)">
<path d="M10 36C10 52.5685 23.4315 66 40 66C56.5685 66 70 52.5685 70 36C70 19.4315 56.5685 6 40 6C23.4315 6 10 19.4315 10 36Z" fill="white"/>
</g>
<path fill-rule="evenodd" clip-rule="evenodd" d="M26.7821 52.2495C26.3095 52.2495 25.856 52.0616 25.5218 51.7274C25.1876 51.3932 25 50.94 25 50.4674C25 49.5741 26.4272 48.2719 27.4268 48.04C27.3994 48.003 27.3721 47.9656 27.3446 47.9281C24.8184 44.3789 25.9563 39.7468 27.0325 36.5719L27.0889 36.4284C27.9223 34.5521 29.0064 32.7975 30.3115 31.2127C31.3616 29.9464 32.54 28.7925 33.828 27.7694C33.9181 27.9696 34.1243 28.1041 34.3568 28.0919L43.6659 27.604C43.7653 27.5988 43.8571 27.5674 43.9351 27.5169L43.9443 27.536C43.9724 27.5961 44.0127 27.6497 44.0624 27.6935C46.5897 29.9716 49.9695 33.4938 51.725 37.3355C53.1625 40.4846 53.3897 43.4074 52.4011 46.0244C52.1161 46.7535 51.7447 47.4459 51.295 48.0866C52.3289 48.4101 53.7842 49.6218 53.7842 50.4679C53.7842 50.9405 53.5963 51.3937 53.2621 51.7279C52.9279 52.0621 52.4748 52.25 52.0021 52.25L26.7821 52.2495ZM34.4691 26.0359L34.4643 26.0359C34.4477 25.8051 34.3473 25.4324 34.007 24.8671C33.2689 23.753 32.4573 22.6894 31.5772 21.6837C31.5119 21.6149 31.4614 21.5338 31.4288 21.4448C31.3963 21.3558 31.3823 21.261 31.3879 21.1664C31.4074 21.0753 31.4464 20.9897 31.5025 20.9152C31.5585 20.8408 31.6303 20.7793 31.7124 20.7353C31.7417 20.7172 31.7714 20.6985 31.7994 20.6807C32.1744 20.3846 32.6403 20.227 33.118 20.2346C33.2745 20.2356 33.4307 20.2455 33.5861 20.2641C34.0517 20.3145 34.428 20.6249 34.7926 20.9256L34.7936 20.9265C35.1818 21.2473 35.548 21.5487 36.0089 21.5487C36.0962 21.5483 36.183 21.5374 36.2678 21.5166C36.5113 21.4661 36.6932 21.2554 36.9216 20.9886V20.9859C37.2025 20.6008 37.5711 20.2882 37.9969 20.074C38.4227 19.8597 38.8935 19.7498 39.3702 19.7537C39.4231 19.751 39.4672 19.75 39.5091 19.75C40.9244 19.75 41.6247 20.5324 42.0878 21.0498L42.0891 21.0512L42.0929 21.0534C42.3078 21.2944 42.4787 21.4834 42.6482 21.5166C42.7178 21.5329 42.7889 21.5411 42.8605 21.5412C43.2155 21.5412 43.411 21.3116 43.6369 21.0448L43.6442 21.0362C43.6626 21.015 43.6811 20.9931 43.6995 20.9712L43.6998 20.9709L43.7264 20.9393C43.8678 20.7481 44.0528 20.5931 44.2661 20.4879C44.4795 20.3827 44.7151 20.3304 44.9529 20.3348H44.9553H45.3754H45.3805H45.3928H45.4137C45.5316 20.3331 45.6444 20.3315 45.7503 20.3315C46.0826 20.3064 46.4167 20.3475 46.7332 20.452C46.8474 20.5072 46.9413 20.5971 47.0009 20.7091C47.0605 20.821 47.0829 20.9492 47.0649 21.0748C47.0649 21.3169 46.8526 21.8254 45.8341 22.8724C45.3001 23.4198 44.7599 23.8944 44.6278 24.0105L44.603 24.0323H44.6006C44.339 24.2262 43.6901 25.4218 43.5339 26.0779C43.5249 26.115 43.5171 26.1522 43.5105 26.1896L34.4691 26.0359ZM45 40.375C45 43.4816 42.4816 46 39.375 46C36.2684 46 33.75 43.4816 33.75 40.375C33.75 37.2684 36.2684 34.75 39.375 34.75C42.4816 34.75 45 37.2684 45 40.375Z" fill="#663399"/>
<g clip-path="url(#clip0_2657_69782)">
<path d="M39.0062 44.7513L36.9812 41.2188V40.3863H37.6562C38.0537 40.3863 38.3875 40.3 38.6575 40.1275C38.9275 39.9475 39.1 39.7 39.175 39.385H36.9812V38.5525H39.1637C39.0962 38.2675 38.9575 38.0312 38.7475 37.8438C38.5375 37.6487 38.245 37.5512 37.87 37.5512H36.9812V36.7188H42.055V37.5512H40.2887C40.5512 37.8363 40.7162 38.17 40.7837 38.5525H42.055V39.385H40.8062C40.7312 39.94 40.5137 40.375 40.1537 40.69C39.8012 40.9975 39.3512 41.2075 38.8037 41.32L41.0087 44.7513H39.0062Z" fill="#E24E5A"/>
</g>
<defs>
<filter id="filter0_d_2657_69782" x="0" y="0" width="80" height="80" filterUnits="userSpaceOnUse" color-interpolation-filters="sRGB">
<feFlood flood-opacity="0" result="BackgroundImageFix"/>
<feColorMatrix in="SourceAlpha" type="matrix" values="0 0 0 0 0 0 0 0 0 0 0 0 0 0 0 0 0 0 127 0" result="hardAlpha"/>
<feOffset dy="4"/>
<feGaussianBlur stdDeviation="5"/>
<feComposite in2="hardAlpha" operator="out"/>
<feColorMatrix type="matrix" values="0 0 0 0 0 0 0 0 0 0 0 0 0 0 0 0 0 0 0.15 0"/>
<feBlend mode="normal" in2="BackgroundImageFix" result="effect1_dropShadow_2657_69782"/>
<feBlend mode="normal" in="SourceGraphic" in2="effect1_dropShadow_2657_69782" result="shape"/>
</filter>
<clipPath id="clip0_2657_69782">
<rect width="6.25" height="8.75" fill="white" transform="translate(36.25 36)"/>
</clipPath>
</defs>
</svg>
