<svg width="80" height="80" viewBox="0 0 80 80" fill="none" xmlns="http://www.w3.org/2000/svg">
<g filter="url(#filter0_d_2657_69767)">
<path d="M10 36C10 52.5685 23.4315 66 40 66C56.5685 66 70 52.5685 70 36C70 19.4315 56.5685 6 40 6C23.4315 6 10 19.4315 10 36Z" fill="white"/>
</g>
<path d="M37.6368 26.8468C37.2989 26.8268 36.9623 26.9042 36.6671 27.0699C36.372 27.2356 36.1306 27.4826 35.9717 27.7815L30.4093 38.93C29.9105 39.9295 29.6942 41.0463 29.7838 42.1598L30.0965 46.1192C30.1627 46.8695 30.0309 47.6241 29.7145 48.3076L28.0476 52.0591C28.008 52.1573 27.9928 52.2638 28.0032 52.3692C28.0136 52.4747 28.0493 52.576 28.1074 52.6647C28.1654 52.7533 28.244 52.8267 28.3365 52.8784C28.4289 52.9301 28.5326 52.9587 28.6385 52.9618H34.717C34.8607 52.9631 35.0007 52.9158 35.1143 52.8276C35.2278 52.7394 35.3082 52.6154 35.3425 52.4758L36.176 49.2113C36.3091 48.6393 36.6263 48.1267 37.0787 47.7523L38.2249 46.7803C38.5384 46.5156 38.7905 46.1858 38.9637 45.8138C39.1369 45.4419 39.2271 45.0367 39.228 44.6264V35.3181C39.2336 35.2162 39.2132 35.1146 39.1689 35.0227C39.1245 34.9308 39.0576 34.8516 38.9744 34.7926C38.8911 34.7336 38.7943 34.6966 38.6929 34.6852C38.5915 34.6737 38.4888 34.6882 38.3945 34.7272C37.9112 34.8897 37.4859 35.1901 37.1711 35.5912C36.8563 35.9924 36.6657 36.4769 36.6228 36.985C36.0675 40.5622 35.8586 41.7085 35.8586 41.7085C35.8217 41.8936 35.7221 42.0603 35.5766 42.1806C35.4311 42.3008 35.2486 42.3673 35.0598 42.3686H34.8866C34.6706 42.3264 34.48 42.2006 34.3564 42.0185C34.2327 41.8365 34.186 41.6129 34.2264 41.3966C34.2264 41.3966 34.4352 40.2112 34.9905 36.7461C35.1142 35.6978 35.6167 34.7308 36.4035 34.0272C37.1903 33.3235 38.2071 32.9317 39.2626 32.9254V28.6496C39.2566 28.203 39.0883 27.7738 38.7892 27.4421C38.49 27.1104 38.0804 26.8988 37.6368 26.8468V26.8468Z" fill="#663399"/>
<path d="M52.0854 52.0947L50.4185 48.3433C50.1214 47.6539 49.9905 46.9042 50.0365 46.1548L50.3492 42.1955C50.4388 41.082 50.2225 39.9652 49.7237 38.9657L44.1659 27.8172C44.0189 27.5079 43.7797 27.2518 43.4812 27.0839C43.1827 26.9161 42.8396 26.8448 42.499 26.8798C42.0602 26.9236 41.6534 27.1292 41.3581 27.4566C41.0627 27.784 40.8999 28.2097 40.9014 28.6506V32.9227C41.9585 32.9427 42.9729 33.3437 43.7579 34.0521C44.5428 34.7605 45.0455 35.7285 45.1735 36.7781C45.6941 40.2514 45.903 41.3976 45.903 41.4286C45.9386 41.6444 45.8899 41.8656 45.7671 42.0466C45.6442 42.2275 45.4565 42.3542 45.2428 42.4007H45.1042C44.9154 42.3993 44.7329 42.3329 44.5874 42.2126C44.4419 42.0924 44.3423 41.9256 44.3054 41.7405C44.3054 41.7405 44.0966 40.5943 43.5412 37.017C43.4926 36.5107 43.2999 36.0289 42.9858 35.6288C42.6718 35.2286 42.2497 34.9269 41.7695 34.7592C41.6751 34.7273 41.5744 34.7181 41.4758 34.7325C41.3772 34.7469 41.2834 34.7845 41.202 34.8421C41.1207 34.8998 41.0542 34.9759 41.008 35.0642C40.9618 35.1525 40.9371 35.2505 40.936 35.3501V44.6621C40.9369 45.0724 41.0271 45.4776 41.2003 45.8495C41.3735 46.2215 41.6256 46.5512 41.9391 46.8159L43.0899 47.788C43.5353 48.1685 43.8509 48.6785 43.9926 49.247L44.8224 52.516C44.8611 52.6532 44.9427 52.7744 45.0553 52.8619C45.1678 52.9493 45.3054 52.9984 45.4479 53.002H51.5264C51.6304 52.995 51.7312 52.9632 51.8205 52.9093C51.9097 52.8554 51.9848 52.781 52.0394 52.6923C52.0941 52.6035 52.1268 52.503 52.1348 52.3991C52.1428 52.2951 52.1259 52.1908 52.0854 52.0947V52.0947Z" fill="#663399"/>
<path d="M41.2832 23.2303V20.9032C41.2832 20.6637 41.1881 20.4339 41.0187 20.2645C40.8493 20.0952 40.6196 20 40.38 20C40.1405 20 39.9107 20.0952 39.7413 20.2645C39.572 20.4339 39.4768 20.6637 39.4768 20.9032V23.2303C39.481 23.4684 39.5775 23.6956 39.7459 23.864C39.9143 24.0324 40.1415 24.1288 40.3796 24.133C40.4984 24.134 40.6163 24.1113 40.7263 24.0663C40.8363 24.0213 40.9363 23.9549 41.0204 23.8708C41.1045 23.7868 41.171 23.6869 41.2161 23.577C41.2613 23.467 41.2841 23.3492 41.2832 23.2303V23.2303Z" fill="#E24E5A"/>
<path d="M36.1075 24.1679C36.1683 24.3405 36.2811 24.49 36.4303 24.5958C36.5796 24.7016 36.758 24.7586 36.941 24.7588C37.0483 24.7524 37.1538 24.729 37.2538 24.6895C37.4764 24.6071 37.6586 24.4418 37.7621 24.2281C37.8657 24.0145 37.8825 23.769 37.8091 23.5432L37.0103 21.3548C36.9728 21.2422 36.9132 21.1383 36.835 21.0491C36.7567 20.96 36.6615 20.8873 36.5548 20.8355C36.448 20.7837 36.3321 20.7537 36.2136 20.7474C36.0952 20.741 35.9766 20.7584 35.865 20.7985C35.6423 20.8809 35.4601 21.0462 35.3566 21.2599C35.2531 21.4735 35.2363 21.7189 35.3097 21.9447L36.1075 24.1679Z" fill="#E24E5A"/>
<path d="M43.5066 24.6894C43.6065 24.729 43.7121 24.7524 43.8193 24.7587C44.003 24.7613 44.1826 24.7054 44.3324 24.5992C44.4822 24.493 44.5944 24.342 44.6528 24.1679L45.4516 21.9794C45.4935 21.8679 45.5124 21.749 45.5069 21.63C45.5014 21.511 45.4717 21.3943 45.4197 21.2871C45.3676 21.18 45.2943 21.0845 45.2041 21.0066C45.114 20.9287 45.0089 20.87 44.8953 20.8341C44.7837 20.7938 44.6652 20.7763 44.5466 20.7825C44.4281 20.7887 44.3121 20.8186 44.2053 20.8703C44.0985 20.922 44.0031 20.9946 43.9248 21.0838C43.8464 21.1729 43.7867 21.2768 43.7491 21.3894L42.9503 23.5779C42.9121 23.6873 42.8962 23.8033 42.9036 23.9189C42.911 24.0346 42.9416 24.1476 42.9934 24.2513C43.0453 24.3549 43.1174 24.4471 43.2056 24.5224C43.2937 24.5976 43.3961 24.6544 43.5066 24.6894V24.6894Z" fill="#E24E5A"/>
<defs>
<filter id="filter0_d_2657_69767" x="0" y="0" width="80" height="80" filterUnits="userSpaceOnUse" color-interpolation-filters="sRGB">
<feFlood flood-opacity="0" result="BackgroundImageFix"/>
<feColorMatrix in="SourceAlpha" type="matrix" values="0 0 0 0 0 0 0 0 0 0 0 0 0 0 0 0 0 0 127 0" result="hardAlpha"/>
<feOffset dy="4"/>
<feGaussianBlur stdDeviation="5"/>
<feComposite in2="hardAlpha" operator="out"/>
<feColorMatrix type="matrix" values="0 0 0 0 0 0 0 0 0 0 0 0 0 0 0 0 0 0 0.15 0"/>
<feBlend mode="normal" in2="BackgroundImageFix" result="effect1_dropShadow_2657_69767"/>
<feBlend mode="normal" in="SourceGraphic" in2="effect1_dropShadow_2657_69767" result="shape"/>
</filter>
</defs>
</svg>
