<svg width="80" height="80" viewBox="0 0 80 80" fill="none" xmlns="http://www.w3.org/2000/svg">
<g filter="url(#filter0_d_2657_69810)">
<path d="M10 36C10 52.5685 23.4315 66 40 66C56.5685 66 70 52.5685 70 36C70 19.4315 56.5685 6 40 6C23.4315 6 10 19.4315 10 36Z" fill="white"/>
</g>
<path d="M22 28.5455V27.8182C22 27.2659 22.4477 26.8182 23 26.8182H24.5107C24.6534 26.8182 24.7945 26.7876 24.9245 26.7285L39.3135 20.1881C39.5764 20.0686 39.8782 20.0686 40.1411 20.1881L54.5301 26.7285C54.66 26.7876 54.8011 26.8182 54.9439 26.8182H56.4545C57.0068 26.8182 57.4545 27.2659 57.4545 27.8182V28.5455C57.4545 29.0977 57.0068 29.5455 56.4545 29.5455H53.5783C53.4368 29.5455 53.2969 29.5154 53.1679 29.4574L40.1376 23.5938C39.8767 23.4763 39.5779 23.4763 39.3169 23.5938L26.2866 29.4574C26.1576 29.5154 26.0178 29.5455 25.8763 29.5455H23C22.4477 29.5455 22 29.0977 22 28.5455Z" fill="#E24E5A"/>
<path d="M26.0908 32.2731L39.7272 26.1367L53.3635 32.2731H26.0908Z" fill="#663399"/>
<rect x="26.0908" y="32.2734" width="4.09091" height="17.7273" fill="#663399"/>
<rect x="31.5454" y="32.2734" width="4.09091" height="17.7273" fill="#663399"/>
<rect x="43.8181" y="32.2734" width="4.09091" height="17.7273" fill="#663399"/>
<rect x="49.2727" y="32.2734" width="4.09091" height="17.7273" fill="#663399"/>
<path d="M39.7273 33.6374C38.3636 33.6374 35.6363 34.4556 35.6363 37.7283H34.2727V30.9102H45.1818V37.7283H43.8182C43.8182 36.3647 43 33.6374 39.7273 33.6374Z" fill="#663399"/>
<path d="M30.8636 37.0444C30.1818 37.0444 30.1818 37.7262 30.1818 37.7262H28.8181V31.5898H32.909V37.7262H31.5454C31.5454 37.7262 31.5454 37.0444 30.8636 37.0444Z" fill="#663399"/>
<path d="M48.5909 37.0444C47.909 37.0444 47.909 37.7262 47.909 37.7262H46.5454V31.5898H50.6363V37.7262H49.2727C49.2727 37.7262 49.2727 37.0444 48.5909 37.0444Z" fill="#663399"/>
<defs>
<filter id="filter0_d_2657_69810" x="0" y="0" width="80" height="80" filterUnits="userSpaceOnUse" color-interpolation-filters="sRGB">
<feFlood flood-opacity="0" result="BackgroundImageFix"/>
<feColorMatrix in="SourceAlpha" type="matrix" values="0 0 0 0 0 0 0 0 0 0 0 0 0 0 0 0 0 0 127 0" result="hardAlpha"/>
<feOffset dy="4"/>
<feGaussianBlur stdDeviation="5"/>
<feComposite in2="hardAlpha" operator="out"/>
<feColorMatrix type="matrix" values="0 0 0 0 0 0 0 0 0 0 0 0 0 0 0 0 0 0 0.15 0"/>
<feBlend mode="normal" in2="BackgroundImageFix" result="effect1_dropShadow_2657_69810"/>
<feBlend mode="normal" in="SourceGraphic" in2="effect1_dropShadow_2657_69810" result="shape"/>
</filter>
</defs>
</svg>
