<svg width="80" height="80" viewBox="0 0 80 80" fill="none" xmlns="http://www.w3.org/2000/svg">
<g filter="url(#filter0_d_2657_69815)">
<path d="M10 36C10 52.5685 23.4315 66 40 66C56.5685 66 70 52.5685 70 36C70 19.4315 56.5685 6 40 6C23.4315 6 10 19.4315 10 36Z" fill="white"/>
</g>
<rect x="27.6521" y="36.957" width="25.4348" height="7.06522" rx="1" fill="#663399"/>
<rect x="22" y="45.4336" width="36.7391" height="7.06522" rx="1" fill="#663399"/>
<path d="M38.9566 20C38.9566 20 42.4892 24.9457 40.3697 32.7174C40.3697 32.7174 37.5437 32.7174 37.5437 35.5435C31.1849 29.1848 38.9566 25.6522 38.9566 20Z" fill="#E24E5A"/>
<path d="M38.9567 20C38.9567 20 40.37 29.4064 40.37 32.7174C40.37 32.7174 43.1956 32.7174 43.1956 35.5435C44.6094 27.7717 43.9023 22.8261 38.9567 20Z" fill="#E24E5A"/>
<path d="M44.609 25.6523C47.435 29.185 46.022 32.7176 43.1959 35.5436C43.7613 33.2828 40.3697 31.3045 39.6631 30.598C41.3587 30.598 44.6087 28.4784 44.609 25.6523Z" fill="#E24E5A"/>
<defs>
<filter id="filter0_d_2657_69815" x="0" y="0" width="80" height="80" filterUnits="userSpaceOnUse" color-interpolation-filters="sRGB">
<feFlood flood-opacity="0" result="BackgroundImageFix"/>
<feColorMatrix in="SourceAlpha" type="matrix" values="0 0 0 0 0 0 0 0 0 0 0 0 0 0 0 0 0 0 127 0" result="hardAlpha"/>
<feOffset dy="4"/>
<feGaussianBlur stdDeviation="5"/>
<feComposite in2="hardAlpha" operator="out"/>
<feColorMatrix type="matrix" values="0 0 0 0 0 0 0 0 0 0 0 0 0 0 0 0 0 0 0.15 0"/>
<feBlend mode="normal" in2="BackgroundImageFix" result="effect1_dropShadow_2657_69815"/>
<feBlend mode="normal" in="SourceGraphic" in2="effect1_dropShadow_2657_69815" result="shape"/>
</filter>
</defs>
</svg>
