<svg width="80" height="80" viewBox="0 0 80 80" fill="none" xmlns="http://www.w3.org/2000/svg">
<g filter="url(#filter0_d_5360_213221)">
<path d="M10 36C10 52.5685 23.4315 66 40 66C56.5685 66 70 52.5685 70 36C70 19.4315 56.5685 6 40 6C23.4315 6 10 19.4315 10 36Z" fill="white"/>
</g>
<path d="M32.8464 26.4175H48.031C49.0515 26.4175 49.8701 25.585 49.8701 24.5781V21.8259C49.8701 20.8191 49.0512 20 48.031 20H32.8059C31.7991 20 30.9802 20.8191 30.9802 21.8259V24.5781C30.9802 25.5849 31.7991 26.4175 32.8059 26.4175H32.8464Z" fill="#663399"/>
<path fill-rule="evenodd" clip-rule="evenodd" d="M28 47.6494V34.7606L28.0003 34.7609C28.0003 32.371 29.947 30.4245 32.3369 30.4245H32.7527L32.7795 28.9609H48.0177L48.0179 30.3438L48.501 30.4244C50.8911 30.4244 52.8378 32.371 52.8378 34.7609V47.636C52.8378 50.039 50.8911 51.9994 48.501 51.9994H32.3366C29.9467 51.9994 28 50.0393 28 47.6494ZM40.4083 47.7902C44.4058 47.7902 47.6465 44.5495 47.6465 40.552C47.6465 36.5545 44.4058 33.3138 40.4083 33.3138C36.4108 33.3138 33.1701 36.5545 33.1701 40.552C33.1701 44.5495 36.4108 47.7902 40.4083 47.7902Z" fill="#663399"/>
<circle cx="40.5" cy="40.5" r="4.5" fill="#E24E5A"/>
<defs>
<filter id="filter0_d_5360_213221" x="0" y="0" width="80" height="80" filterUnits="userSpaceOnUse" color-interpolation-filters="sRGB">
<feFlood flood-opacity="0" result="BackgroundImageFix"/>
<feColorMatrix in="SourceAlpha" type="matrix" values="0 0 0 0 0 0 0 0 0 0 0 0 0 0 0 0 0 0 127 0" result="hardAlpha"/>
<feOffset dy="4"/>
<feGaussianBlur stdDeviation="5"/>
<feComposite in2="hardAlpha" operator="out"/>
<feColorMatrix type="matrix" values="0 0 0 0 0 0 0 0 0 0 0 0 0 0 0 0 0 0 0.15 0"/>
<feBlend mode="normal" in2="BackgroundImageFix" result="effect1_dropShadow_5360_213221"/>
<feBlend mode="normal" in="SourceGraphic" in2="effect1_dropShadow_5360_213221" result="shape"/>
</filter>
</defs>
</svg>
