<svg width="80" height="80" viewBox="0 0 80 80" fill="none" xmlns="http://www.w3.org/2000/svg">
<g filter="url(#filter0_d_2657_69762)">
<path d="M10 36C10 52.5685 23.4315 66 40 66C56.5685 66 70 52.5685 70 36C70 19.4315 56.5685 6 40 6C23.4315 6 10 19.4315 10 36Z" fill="white"/>
</g>
<path d="M30.0648 48.0978C29.3828 48.0943 28.7298 47.8207 28.2491 47.3368C27.7684 46.8529 27.4991 46.1982 27.5001 45.5162C27.4889 43.2257 28.1421 40.9811 29.3808 39.0545C30.6194 37.1278 32.3903 35.6019 34.4789 34.6614C36.5674 33.7209 38.8838 33.4063 41.1475 33.7559C43.4111 34.1054 45.5248 35.1039 47.2324 36.6305H39.2032L41.2502 48.0978H30.0648Z" fill="#663399"/>
<path d="M39.2444 19.7502C38.0117 19.7596 36.8094 20.1338 35.789 20.8255C34.7686 21.5172 33.9757 22.4956 33.5105 23.6372C33.0453 24.7788 32.9284 26.0325 33.1747 27.2404C33.4209 28.4484 34.0193 29.5564 34.8943 30.4248C35.7693 31.2931 36.8819 31.883 38.0917 32.1201C39.3014 32.3571 40.5542 32.2307 41.6922 31.7568C42.8303 31.2829 43.8026 30.4827 44.4865 29.4571C45.1704 28.4315 45.5354 27.2263 45.5354 25.9935V25.9458C45.5293 25.1258 45.3617 24.3151 45.0423 23.56C44.7228 22.8049 44.2576 22.1201 43.6734 21.5448C43.0892 20.9694 42.3973 20.5148 41.6374 20.2069C40.8775 19.899 40.0644 19.7438 39.2444 19.7502V19.7502Z" fill="#663399"/>
<path d="M46.8752 52.2465C47.5434 52.2465 48.0851 51.7358 48.0851 51.1057C48.0851 50.4756 47.5434 49.9648 46.8752 49.9648C46.207 49.9648 45.6653 50.4756 45.6653 51.1057C45.6653 51.7358 46.207 52.2465 46.8752 52.2465Z" fill="#E24E5A"/>
<path fill-rule="evenodd" clip-rule="evenodd" d="M46.6645 38.4961C46.401 40.723 46.0667 43.6354 46.0534 44.1857C46.0404 44.6654 46.0787 45.1451 46.1678 45.6175C46.2797 46.1739 46.5058 46.655 46.9081 46.6552C46.9764 46.6552 47.377 46.5831 47.5668 45.604C47.6529 45.3094 47.6835 44.8723 47.6668 44.1899C47.6409 43.1249 47.4878 41.4459 47.2475 38.8089C47.2381 38.7061 47.2286 38.6018 47.2189 38.4961H52.5002L50.6412 49.2066L46.9721 48.586L46.9661 48.5846L46.9601 48.586L43.4979 49.2066L41.2502 38.4961H46.6645Z" fill="#E24E5A"/>
<defs>
<filter id="filter0_d_2657_69762" x="0" y="0" width="80" height="80" filterUnits="userSpaceOnUse" color-interpolation-filters="sRGB">
<feFlood flood-opacity="0" result="BackgroundImageFix"/>
<feColorMatrix in="SourceAlpha" type="matrix" values="0 0 0 0 0 0 0 0 0 0 0 0 0 0 0 0 0 0 127 0" result="hardAlpha"/>
<feOffset dy="4"/>
<feGaussianBlur stdDeviation="5"/>
<feComposite in2="hardAlpha" operator="out"/>
<feColorMatrix type="matrix" values="0 0 0 0 0 0 0 0 0 0 0 0 0 0 0 0 0 0 0.15 0"/>
<feBlend mode="normal" in2="BackgroundImageFix" result="effect1_dropShadow_2657_69762"/>
<feBlend mode="normal" in="SourceGraphic" in2="effect1_dropShadow_2657_69762" result="shape"/>
</filter>
</defs>
</svg>
