<svg width="80" height="80" viewBox="0 0 80 80" fill="none" xmlns="http://www.w3.org/2000/svg">
<g filter="url(#filter0_d_2657_69795)">
<path d="M10 36C10 52.5685 23.4315 66 40 66C56.5685 66 70 52.5685 70 36C70 19.4315 56.5685 6 40 6C23.4315 6 10 19.4315 10 36Z" fill="white"/>
</g>
<path d="M41.5463 28.3218C41.1477 27.9224 40.8328 27.4475 40.6199 26.9248C40.4071 26.4022 40.3005 25.8423 40.3066 25.278C40.3066 22.9627 43.7011 19.5963 44.2821 19.0371C44.2928 19.0254 44.3058 19.0161 44.3203 19.0097C44.3348 19.0033 44.3505 19 44.3663 19C44.3822 19 44.3979 19.0033 44.4123 19.0097C44.4268 19.0161 44.4398 19.0254 44.4505 19.0371C45.0315 19.5971 48.4259 22.9627 48.4259 25.278C48.432 25.8424 48.3254 26.4023 48.1124 26.9249C47.8994 27.4476 47.5842 27.9225 47.1854 28.3218C47.1709 28.3349 47.1538 28.3449 47.1352 28.351C47.1167 28.3571 47.0971 28.3591 47.0776 28.3571C47.0582 28.355 47.0394 28.3488 47.0225 28.3389C47.0056 28.3291 46.991 28.3159 46.9796 28.3C46.9471 27.6285 46.6575 26.9954 46.1709 26.5317C45.6842 26.0679 45.0377 25.8092 44.3655 25.8092C43.6933 25.8092 43.0468 26.0679 42.5601 26.5317C42.0734 26.9954 41.7838 27.6285 41.7513 28.3C41.7399 28.3157 41.7253 28.3289 41.7085 28.3386C41.6917 28.3484 41.673 28.3545 41.6537 28.3565C41.6343 28.3586 41.6149 28.3565 41.5964 28.3506C41.5779 28.3446 41.5608 28.3348 41.5463 28.3218Z" fill="#E24E5A"/>
<path d="M55.4546 44.2665L44.2245 50.3461C42.9876 51.0158 41.5387 51.1779 40.1845 50.7981L31.936 47.6575L28.7466 50.0601L24 43.3976L30.3142 40.0729C31.5862 39.4369 34.397 39.2695 35.8199 39.2695H44.1843C44.7184 39.2683 45.2322 39.4738 45.6181 39.8429C46.0041 40.212 46.2323 40.7162 46.2549 41.2498C46.2774 41.7833 46.0926 42.3049 45.7391 42.7053C45.3857 43.1057 44.891 43.3538 44.3588 43.3976L41.2374 43.6541C40.9835 43.6749 40.7468 43.7905 40.5741 43.9778C40.4015 44.1651 40.3057 44.4105 40.3057 44.6652C40.3057 44.8056 40.3349 44.9444 40.3913 45.0729C40.4477 45.2015 40.5301 45.317 40.6335 45.412C40.7368 45.507 40.8587 45.5796 40.9915 45.6251C41.1243 45.6706 41.265 45.688 41.4049 45.6763L44.5237 45.4146C45.3596 45.3399 46.1526 45.0108 46.7958 44.4718C47.4391 43.9327 47.9017 43.2096 48.1215 42.3997L54.1461 40.7421C54.6037 40.6077 55.0954 40.6518 55.5218 40.8656C55.9482 41.0795 56.2777 41.447 56.4437 41.8941C56.6098 42.3413 56.6 42.8349 56.4165 43.2751C56.2329 43.7154 55.8891 44.0697 55.4546 44.2665Z" fill="#663399"/>
<path d="M55.171 30.4949C55.0312 32.5961 54.281 34.6109 53.0126 36.292C51.7442 37.9731 50.0127 39.2474 48.0305 39.9585C47.7473 39.1653 47.2261 38.4787 46.5382 37.9927C45.8503 37.5066 45.0291 37.2447 44.1868 37.2428H36.5307C34.7782 35.4109 33.7279 33.0196 33.5646 30.4897C33.5607 30.3975 33.5756 30.3055 33.6083 30.2193C33.6411 30.1331 33.6912 30.0545 33.7553 29.9882C33.8195 29.9219 33.8964 29.8694 33.9815 29.8338C34.0666 29.7982 34.158 29.7804 34.2503 29.7813H54.4897C54.5818 29.7818 54.6727 29.8008 54.7573 29.8373C54.8418 29.8738 54.9182 29.9268 54.9818 29.9934C55.0454 30.06 55.095 30.1388 55.1275 30.2249C55.16 30.3111 55.1748 30.4029 55.171 30.4949Z" fill="#663399"/>
<defs>
<filter id="filter0_d_2657_69795" x="0" y="0" width="80" height="80" filterUnits="userSpaceOnUse" color-interpolation-filters="sRGB">
<feFlood flood-opacity="0" result="BackgroundImageFix"/>
<feColorMatrix in="SourceAlpha" type="matrix" values="0 0 0 0 0 0 0 0 0 0 0 0 0 0 0 0 0 0 127 0" result="hardAlpha"/>
<feOffset dy="4"/>
<feGaussianBlur stdDeviation="5"/>
<feComposite in2="hardAlpha" operator="out"/>
<feColorMatrix type="matrix" values="0 0 0 0 0 0 0 0 0 0 0 0 0 0 0 0 0 0 0.15 0"/>
<feBlend mode="normal" in2="BackgroundImageFix" result="effect1_dropShadow_2657_69795"/>
<feBlend mode="normal" in="SourceGraphic" in2="effect1_dropShadow_2657_69795" result="shape"/>
</filter>
</defs>
</svg>
